<svg xmlns="http://www.w3.org/2000/svg" viewBox="0 0 1280 236"><path d="M315.16 226.567 239.21 10.865c-.812-2.432.812-4.865 3.656-4.865h52.8c1.625 0 2.843 1.216 3.655 2.433l35.336 113.121 10.154 35.274c0 .407.406.407.406.407.406 0 .406 0 .406-.407 2.032-9.324 5.28-21.082 9.748-35.274L391.519 8.433C391.925 6.81 393.549 6 395.173 6h51.99c2.436 0 4.467 2.433 3.655 4.865l-76.764 215.702c-.407 1.621-2.03 2.433-3.656 2.433H318.41c-1.624 0-2.844-.812-3.25-2.433zM571.187 236c-36.156 0-64.594-10.93-85.312-33.194-20.719-22.265-30.875-50.6-30.875-85.413 0-34.409 10.156-61.53 30.875-83.794C506.593 10.929 533 0 565.5 0c35.344 0 62.563 12.144 81.656 36.432 18.688 23.883 28.438 55.053 28.844 94.319a3.634 3.634 0 0 1-3.657 3.643H517.562c-2.437 0-4.062 2.025-3.655 4.453 2.843 15.788 8.53 27.931 17.468 36.837 9.75 9.715 22.75 14.573 39.406 14.573 21.125 0 34.938-8.5 42.25-25.502.407-1.215 2.032-2.024 3.25-2.024h51.595c2.437 0 4.061 2.428 3.655 4.452-4.875 19.026-15.843 34.813-32.093 47.767-17.876 14.169-40.625 21.05-68.25 21.05zm-4.469-190.662c-27.624 0-44.687 14.573-51.187 43.719-.406 2.428 1.219 4.452 3.657 4.452h91c2.03 0 4.062-2.024 3.656-4.048-1.626-12.549-6.093-22.669-14.219-30.765-8.531-8.905-19.906-13.358-32.907-13.358zM826 53.352a3.624 3.624 0 0 1-3.636 3.643h-59.778a3.624 3.624 0 0 0-3.635 3.642v164.72a3.623 3.623 0 0 1-3.636 3.643h-49.68a3.623 3.623 0 0 1-3.635-3.642V76.826C702 37.568 733.908 6 772.684 6h49.277a3.624 3.624 0 0 1 3.635 3.642zM944.861 236c-32.525 0-57.732-6.87-76.028-21.013C851.758 201.652 844.44 183.87 842 161.24c0-2.02 1.626-4.04 3.658-4.04h48.382c1.628 0 3.253 1.212 3.66 2.828 4.472 22.63 17.89 33.945 45.942 33.945 13.417 0 23.581-2.424 30.9-6.87 7.318-4.85 10.978-10.911 10.978-18.589 0-2.829-.408-5.658-1.628-7.678-1.219-2.424-2.845-4.446-5.285-6.466-2.439-2.02-4.879-3.233-6.505-4.446-2.033-1.211-5.285-2.424-9.757-3.636-4.88-1.212-8.132-2.02-10.978-2.424-2.44-.404-6.912-1.213-13.01-2.426-6.099-1.211-10.165-1.616-12.603-2.424-12.198-2.425-22.362-4.85-30.086-7.273-7.726-2.426-15.858-6.063-24.395-10.912-8.538-4.85-15.043-11.315-19.109-19.397-4.472-8.083-6.506-18.185-6.506-29.904 0-23.035 8.539-40.816 26.022-52.939C889.162 6.466 910.71 0 937.544 0c29.273 0 52.04 6.466 68.71 19.801 15.45 12.528 22.361 29.096 25.208 50.11.406 2.02-1.628 4.041-3.66 4.041h-47.161c-1.628 0-3.253-1.212-3.66-3.233-3.253-19.801-15.043-29.5-40.25-29.5-12.198 0-21.55 2.02-28.46 6.466S897.7 58.192 897.7 65.87c0 2.425.406 4.85 1.626 7.274 1.22 2.425 2.846 4.041 5.285 5.658 2.44 1.616 4.879 2.828 7.319 4.04 2.439 1.213 5.692 2.021 10.164 3.233 4.473 1.213 8.13 2.021 11.384 2.425 3.253.808 7.725 1.617 13.417 2.425 5.692 1.212 10.164 1.616 13.416 2.424 9.351 2.021 17.077 4.042 23.175 5.254 6.098 1.616 13.01 4.041 21.141 7.678 8.132 3.637 14.23 7.678 18.703 12.123 4.472 4.446 8.538 10.507 11.79 18.185 3.253 7.678 4.88 16.568 4.88 26.672 0 22.226-8.945 39.602-26.428 52.534-17.075 13.74-40.25 20.205-68.71 20.205zm230.326 0c-36.156 0-64.594-10.93-85.312-33.194-20.719-22.265-30.875-50.6-30.875-85.413 0-34.409 10.156-61.53 30.875-83.794C1110.593 10.929 1136.999 0 1169.5 0c35.344 0 62.562 12.144 81.656 36.432 18.688 23.883 28.438 55.053 28.844 94.319a3.634 3.634 0 0 1-3.657 3.643h-154.781c-2.437 0-4.063 2.025-3.657 4.453 2.845 15.788 8.532 27.931 17.47 36.837 9.75 9.715 22.75 14.573 39.406 14.573 21.125 0 34.938-8.5 42.25-25.502.406-1.215 2.032-2.024 3.25-2.024h51.594c2.438 0 4.062 2.428 3.656 4.452-4.875 19.026-15.843 34.813-32.093 47.767-17.876 14.169-40.625 21.05-68.25 21.05zm-4.875-190.662c-27.625 0-44.687 14.573-51.187 43.719-.406 2.428 1.218 4.452 3.655 4.452h91.001c2.031 0 4.063-2.024 3.656-4.048-1.625-12.549-6.094-22.669-14.218-30.765-8.125-8.905-19.5-13.358-32.907-13.358zM224 225.7c0 2.023-1.623 3.641-3.653 3.237H182.61c-1.624 0-3.247-.405-4.464-1.619l-62.493-62.308c-1.623-1.619-3.652-1.619-5.275 0l-33.681 33.582c-.812.404-1.218 1.618-1.218 2.427v24.276a3.632 3.632 0 0 1-3.652 3.642H3.652A3.632 3.632 0 0 1 0 225.296v-41.27c0-.808.406-1.618 1.217-2.427l62.899-62.714c1.623-1.618 1.623-3.641 0-5.26L2.029 51.72C1.217 50.507.406 48.888.406 47.27V9.64A3.632 3.632 0 0 1 4.058 6h40.58c1.623 0 3.246.405 4.463 1.618L222.377 180.79c.812 1.214 1.623 2.832 1.623 4.45z" fill="#000"/><path d="M132.633 59.615h34.332a3.651 3.651 0 0 1 3.677 3.656V97.39c0 3.249 4.087 4.874 6.132 2.437l47-46.71c.817-.813 1.226-1.625 1.226-2.438V9.656A3.651 3.651 0 0 0 221.323 6h-41.69c-.816 0-2.042.406-2.45 1.219L130.18 53.523c-2.451 2.03-.817 6.092 2.453 6.092z" fill="#ee7a30"/></svg>