<svg xmlns="http://www.w3.org/2000/svg" viewBox="0 0 753 1230"><g fill="none" fill-rule="evenodd"><path d="M258.111 1221.073c10.286-25.458 47.54-187.647-37.817-205.082-85.357-17.435-167.387 164.353-134.486 157.903 32.901-6.45 59.738-39.132 62.898-19.459 3.16 19.674 3.39 80.342 20.597 70.244 17.208-10.098 38.816-67.328 45.27-50.81 6.455 16.517 33.252 72.663 43.538 47.204zM492.353 1223.278c-10.43-25.817-48.55-190.152 36.889-207.38 85.44-17.23 168.522 167.161 135.524 160.472-32.998-6.69-60.048-39.898-63.117-20.002-3.07 19.897-3.003 81.298-20.295 70.994-17.291-10.305-39.221-68.334-45.608-51.648-6.386 16.686-32.962 73.382-43.393 47.564z" fill="#f7931b" fill-rule="nonzero"/><path d="M628.476 510.555c32.982 85.991 44.975 442.957-5.996 529.948-50.971 86.992-416.763 74.993-456.74 14C125.763 993.507 16.825 756.53 98.778 546.55c81.954-209.98 470.732-189.982 529.698-35.996z" fill="#020202"/><path d="M106.674 562.622c-111 57-111 291-81 313s133-203 127-281c-2-29-25-43-46-32zM635.674 537.622c111 57 126.272 307.973 96.272 329.973S573.674 682.622 579.674 604.622c2-29 35-78 56-67z" fill="#000" fill-rule="nonzero"/><path d="M93 2h546v559H93z"/><g transform="translate(93 2)"><path d="M96.096 288.192c0-54.388 121.177-91.363 190.584-83.282 69.407 8.08 86.784 74.784 86.784 107.077S245.841 344.28 170.968 344.28c-74.872 0-74.872-1.7-74.872-56.088z" fill="#e17b01"/><g fill-rule="nonzero"><path d="M126.462 234.409c11.893-11.813 83.249-32.063 152.906-32.063 69.657 0 80.853 67.145 80.241 69.845-3.007 9.5-3.772 20.351-10.228 28.333-13.625 12.42-33.792 11.357-50.9 9.281-18.723-1.569-35.984-10.192-54.757-11.255-24.108-1.434-48.675-.236-72.07 6.058-14.9 3.966-29.086 13.044-45.056 10.985-10.67-1.265-16.53-11.204-22.494-18.9 6.32-17.313 10.466-50.472 22.358-62.284zM415.932 175.518c7.986-4.354 13.31 9.703 5.124 12.232-8.247 4.156-14.332-9.829-5.124-12.232z" fill="#f7931b"/><path d="M401.663 126.566c19.182-2.447 40.983 1.84 54.476 16.677 6.209 5.953 13.441 11.246 17.257 19.229 9.226 17.336 6.191 38.63-2.48 55.567-6.418 12.061-19.703 18.118-32.242 21.693-15.418 3.783-32.987 4.442-46.914-4.322-9.643-6.16-19.425-13.657-23.813-24.625-4.561-10.985-9.573-22.577-8.03-34.777 1.717-13.936 6.938-28.096 17.31-37.919 6.607-6.42 15.47-10.013 24.436-11.523zM99.512 124.762c11.255-1.219 23.22 1.27 32.293 8.284 12.9 10.043 20.241 27.152 17.644 43.495-1.524 10.13-.468 21.339-6.684 30.111-9.61 13.767-22.856 26.543-40.015 29.328-15.047 2.332-32.656 4.664-45.608-5.292-9.644-6.857-14.908-18.344-16.536-29.85-3.082-22.278 6.719-44.921 22.042-60.69 9.576-10.113 23.376-14.307 36.864-15.386z" fill="#fff"/><path d="M251.89.269c22.726-.068 45.606-1.323 68.164 2.238 23.712 3.646 47.696 7.445 70.032 16.619 16.46 5.85 30.626 16.364 44.3 26.945 21.47 17.415 41.65 36.696 58.193 58.893 12.366 18.263 24.647 36.9 32.375 57.69 10.905 24.893 14.88 52.228 15.22 79.225.441 17.703-3.924 35.017-6.268 52.466-1.834 14.04-6.624 27.471-12.383 40.325-6.471 14.278-17.852 25.385-26.022 38.595-10.328 16.55-26.43 28.082-41.768 39.613-12.281 9.326-25.802 16.788-39.017 24.656C361 461.622 215 469.622 164.004 452.558c-10.565-4.358-21.351-8.19-31.509-13.464-22.846-11.616-45.488-23.91-66.21-39.07-12.367-8.954-22.694-20.315-33.106-31.388-14.082-15.788-25.955-34.44-29.896-55.502C-.793 295.329.056 276.98.107 258.854c.051-11.939 1.155-23.843 3.024-35.645 2.598-16.28 3.533-32.847 7.796-48.838 4.875-19.925 13.419-38.73 23.084-56.757C45.425 99.08 59.609 82.377 74.726 66.742c13.368-15.075 31.033-25.199 48.597-34.61 14.03-7.156 29.283-11.328 43.874-17.161C194.24 4.678 223.336 2.643 251.89.269zm-188.443 140c-15.032 15.364-24.646 37.426-21.623 59.131 1.597 11.21 6.76 22.401 16.222 29.082 12.705 9.7 29.98 7.428 44.74 5.155 16.834-2.713 29.828-15.16 39.255-28.573 6.098-8.546 5.062-19.467 6.557-29.336 2.548-15.923-4.654-32.593-17.309-42.377-8.9-6.834-20.638-9.259-31.679-8.072-13.232 1.052-26.77 5.138-36.163 14.99zm314.596-1.373c-10.157 9.598-15.27 23.435-16.952 37.052-1.511 11.921 3.398 23.249 7.865 33.983 4.297 10.717 13.877 18.043 23.322 24.062 13.64 8.564 30.846 7.92 45.946 4.223 12.281-3.493 25.292-9.412 31.577-21.197 8.493-16.55 11.466-37.357 2.43-54.298-3.738-7.8-10.82-12.972-16.902-18.789-13.215-14.498-34.566-18.687-53.352-16.296-8.782 1.476-17.462 4.986-23.934 11.26zm-150.699 71.9c-17.699 3.493-36.129 5.392-52.418 13.684-14.574 7.479-28.265 16.585-41.19 26.624-15.084 11.497-23.594 29.2-29.913 46.599-2.31 7.885-6.692 16.584-2.26 24.605 2.6 7.427 11.042 9.547 17.887 11.124 16.34 3.103 33.089 1.916 49.616 2.798 26.464-.594 52.928-.56 79.409-.543 27.296-.203 55.017.916 81.804-5.307 10.905-3.46 23.237-7.75 29.555-17.941 5.028-12.362-1.24-44.751-2.02-47.312-5.13-13.464-15.152-24.368-26.16-33.389-8.696-7.461-17.834-14.872-28.858-18.551-24.239-8.326-50.601-7.156-75.452-2.391z" fill="#020202"/><path d="M73.978 149.056c8.323-6.95 19.682-9 30.274-8.509 10.182.373 18.164 9.102 20.569 18.458 1.893 7.593 2.32 15.61 1.347 23.373-2.456 13-11.905 23.475-22.803 30.475-2.166-3.61-4.008-7.492-6.942-10.577-3.888-4.152-11.956-2.39-13.49 3.187-.854 3.763.016 7.644.238 11.44-4.554-.542-9.466-.61-13.423-3.254-9.448-7.101-14.275-19.407-12.655-31.017 1.689-12.525 6.84-25.373 16.885-33.576zM389.672 155.15c6.51-8.34 16.419-15.044 27.416-14.656 10.25-.287 20.464 3.833 27.603 11.145 6 6.13 10.895 13.34 14.669 21.006 3.91 7.801 1.665 16.632.323 24.771-1.122 6.282-3.23 12.986-8.567 17.021-7.955 5.91-18.102 7.582-27.688 9.017.56-5.589 2.243-11.161 1.58-16.801-1.036-5.539-10.028-7.058-12.203-1.57-2.227 5.251-3.383 10.857-5.168 16.26-11.099-3.917-20.906-12.242-24.56-23.606-4.386-14.116-2.805-30.75 6.595-42.586z" fill="#020202"/><path d="M414.718 176.202c-8.238 2.277-2.794 15.526 4.585 11.589 7.379-3.937 3.654-13.865-4.585-11.589zM91.728 173.232c-2.136 0-4.9 1.77-5.096 5.095-.196 3.324.728 7.278 4.368 7.278s7.28-1.455 7.28-5.822c0-4.368-2.184-6.551-6.552-6.551z" fill="#f7931b"/></g><ellipse cx="416.78" cy="182.33" fill="#e17b01" rx="2.548" ry="3.275"/><ellipse cx="92.092" cy="179.055" fill="#e17b01" rx="2.548" ry="2.911"/><path d="M73.528 156.667c0 9.387 5.08 13.653 14.39 13.653s22.01-2.56 22.01-11.093c0-8.534-3.386-13.654-12.698-13.654-9.311 0-23.702 1.707-23.702 11.094zM402.584 158.163c0 9.253 13.636 16.524 22.948 16.524s13.452-5.59 13.452-14c0-8.412-9.68-15.114-18.991-15.114s-17.409 3.337-17.409 12.59z" fill="#504c49"/></g><g fill-rule="nonzero"><path d="M355.26 457.037c35.467-6.287 131.819 17.778 143.432 24.851s55.89 31.373 70.665 71.1c14.775 39.727 13.313 34.239 23.01 88.954 9.698 54.715 14.404 123.891 7.003 204.894s-7.003 125.936-23.01 160.918-123.705 51.673-174.079 53.972c-50.374 2.299-142.065-9.995-177.08-31.984s-35.016-70.963-48.022-126.934c-13.006-55.972-15.622-91.99-19.009-154.92-3.387-62.932 1.183-94.675 6.003-126.935 4.82-32.26 4.049-28.98 21.922-59.97 17.873-30.988 29.012-56.87 71.866-74.88 42.853-18.011 61.832-22.779 97.299-29.066z" fill="#f5da85"/><path d="M270.104 508.914c42.209-15.945 88.322-15.083 132.687-12.364 24.144 2.044 48.525 2.77 72.295 7.651 10.951 2.061 20.476 8.21 28.898 15.219 9.61 7.905 19.712 15.218 29.016 23.478 6.282 5.573 11.41 12.245 17.182 18.309 8.282 19.92 12.974 34.581 14.076 43.98 5.867 50.017 7.47 91.707 9.992 131.943 6.802 108.513-7.86 198.956-15.986 236.897-17.985 83.964-318.728 83.964-340.71 0-18.786-71.758-34.844-181.017-30.973-317.861.414-14.647 5.719-46.3 15.914-94.96 7.963-9.424 14.772-19.88 24.008-28.172 12.089-11.807 28.235-17.837 43.6-24.12z" fill="#f7f9fb"/></g></g></svg>