<svg xmlns="http://www.w3.org/2000/svg" viewBox="0 0 750 768"><g fill="none" fill-rule="evenodd"><path d="M0 0h750v768H0z" fill="#02c5fd"/><path d="M132 395.942c0-74.723 166.452-125.522 261.791-114.42S513 384.266 513 428.633C513 473 337.693 473 234.847 473S132 470.665 132 395.942z" fill="#e17b01"/><g fill-rule="nonzero"><path d="M173.712 322.05C190.048 305.82 288.064 278 383.747 278s111.062 92.25 110.221 95.959c-4.13 13.052-5.18 27.96-14.049 38.926-18.716 17.063-46.417 15.603-69.918 12.751-25.718-2.156-49.428-14.003-75.216-15.464-33.115-1.97-66.86-.324-98.996 8.323-20.467 5.449-39.954 17.922-61.89 15.093-14.656-1.739-22.708-15.394-30.899-25.966 8.681-23.787 14.376-69.343 30.712-85.572zM571.335 241.141c10.97-5.982 18.284 13.33 7.038 16.806-11.327 5.71-19.686-13.504-7.038-16.806z" fill="#f7931b"/><path d="M551.735 173.887c26.349-3.362 56.295 2.527 74.83 22.912 8.528 8.178 18.463 15.45 23.704 26.418 12.674 23.818 8.505 53.073-3.407 76.343-8.815 16.57-27.063 24.891-44.288 29.803-21.179 5.198-45.312 6.104-64.442-5.937-13.246-8.464-26.683-18.764-32.71-33.832-6.265-15.092-13.15-31.019-11.03-47.78 2.358-19.146 9.53-38.6 23.776-52.096 9.076-8.821 21.25-13.757 33.567-15.831zM136.692 171.408c15.46-1.674 31.895 1.745 44.358 11.382 17.72 13.797 27.804 37.303 24.237 59.757-2.093 13.917-.642 29.317-9.181 41.369-13.2 18.914-31.395 36.466-54.966 40.292-20.668 3.204-44.857 6.409-62.648-7.27-13.248-9.42-20.478-25.203-22.714-41.01-4.234-30.607 9.228-61.717 30.277-83.382 13.153-13.893 32.11-19.656 50.637-21.138z" fill="#fff"/><path d="M346.001.37c31.22-.094 62.648-1.818 93.633 3.075 32.572 5.009 65.517 10.227 96.199 22.831 22.609 8.038 42.068 22.482 60.85 37.02 29.493 23.927 57.211 50.416 79.937 80.912 16.986 25.092 33.855 50.696 44.471 79.259 14.98 34.2 20.44 71.756 20.906 108.846.607 24.322-5.39 48.11-8.61 72.082-2.52 19.29-9.1 37.742-17.009 55.402-8.89 19.616-24.522 34.876-35.745 53.025-14.186 22.738-36.305 38.58-57.374 54.423-16.87 12.814-35.442 23.065-53.594 33.875 25.362 8.97 53.22 12.674 75.48 28.865 26.785 19.337 52.077 41.68 70.837 69.1C730.028 720.637 738.24 745.239 750 768H46.322c19.459-24.206 38.358-49.158 61.854-69.683 15.982-14.747 35.091-25.418 52.287-38.627 20.043-15.19 42.792-26.024 64.817-37.929-14.512-5.987-29.328-11.252-43.281-18.498-31.382-15.959-62.484-32.85-90.95-53.677-16.985-12.302-31.171-27.91-45.474-43.124-19.342-21.69-35.652-47.317-41.065-76.253-5.6-24.462-4.433-49.67-4.363-74.575.07-16.402 1.587-32.757 4.153-48.972 3.57-22.365 4.853-45.127 10.71-67.097 6.696-27.374 18.432-53.211 31.708-77.977 15.68-25.464 35.162-48.412 55.928-69.892 18.362-20.712 42.628-34.62 66.753-47.55 19.273-9.832 40.225-15.563 60.268-23.578C266.812 6.427 306.78 3.631 346 .37zM87.153 192.713c-20.649 21.107-33.855 51.418-29.702 81.238 2.193 15.4 9.286 30.776 22.282 39.956 17.453 13.326 41.182 10.204 61.458 7.082 23.122-3.727 40.971-20.828 53.92-39.256 8.377-11.742 6.954-26.746 9.007-40.305 3.5-21.876-6.393-44.778-23.776-58.22-12.226-9.39-28.348-12.72-43.514-11.09-18.176 1.444-36.772 7.059-49.675 20.595zm432.137-1.887c-13.952 13.186-20.975 32.197-23.285 50.905-2.077 16.378 4.666 31.94 10.803 46.688 5.903 14.724 19.062 24.789 32.035 33.06 18.736 11.765 42.371 10.88 63.114 5.8 16.869-4.799 34.741-12.93 43.374-29.121 11.667-22.739 15.75-51.325 3.337-74.6-5.133-10.716-14.863-17.822-23.216-25.813-18.152-19.92-47.48-25.674-73.286-22.389-12.063 2.027-23.986 6.85-32.876 15.47zm-207.004 98.781c-24.312 4.8-49.627 7.409-72.003 18.801-20.02 10.275-38.825 22.785-56.58 36.578-20.72 15.795-32.41 40.118-41.089 64.021-3.173 10.834-9.193 22.785-3.103 33.805 3.57 10.204 15.166 13.116 24.569 15.283 22.445 4.264 45.45 2.633 68.153 3.844 36.352-.815 72.704-.769 109.079-.745 37.495-.28 75.573 1.258 112.368-7.292 14.98-4.753 31.919-10.647 40.598-24.65 6.907-16.983-1.703-61.481-2.776-65-7.047-18.498-20.813-33.478-35.932-45.872-11.946-10.251-24.499-20.432-39.642-25.488-33.295-11.439-69.507-9.831-103.642-3.285z" fill="#020202"/><path d="M348.525 626.998c32.548-6.773 65.96-3.433 98.789-.91 18.842 1.424 37.661 3.83 55.966 8.664 19.427 5.092 39.18 11.585 54.917 24.525 10.226 8.431 19.543 17.867 29.279 26.813 14.733 14.083 30.54 27.163 43.522 42.952C640.268 740.299 643.723 754.71 649 768H129c19.987-24.594 39.39-49.702 59.936-73.853 10.554-12.472 24.003-22.165 38.736-29.078 38.292-18.241 79.479-29.429 120.853-38.07z" fill="#f5da85"/><path d="M243.948 696.124c58.029-21.915 121.426-20.731 182.419-16.994 33.193 2.81 66.712 3.808 99.39 10.517 15.056 2.832 28.151 11.283 39.73 20.917 13.21 10.865 27.1 20.918 39.89 32.27 8.637 7.661 15.687 16.832 23.623 25.166H151c10.947-12.954 20.308-27.325 33.006-38.724 16.62-16.227 38.818-24.515 59.942-33.152z" fill="#f7f9fb"/><path d="M101.618 204.785c11.433-9.547 27.036-12.365 41.585-11.69 13.986.512 24.95 12.505 28.254 25.359 2.6 10.432 3.186 21.447 1.85 32.112-3.373 17.86-16.352 32.251-31.322 41.869-2.976-4.96-5.506-10.293-9.536-14.531-5.341-5.705-16.423-3.283-18.531 4.378-1.171 5.17.023 10.502.328 15.718-6.255-.745-13.003-.838-18.438-4.471-12.979-9.757-19.609-26.663-17.383-42.614 2.319-17.209 9.394-34.86 23.193-46.13zM535.263 213.159c8.942-11.46 22.554-20.67 37.66-20.137 14.079-.394 28.11 5.266 37.917 15.312 8.241 8.42 14.965 18.327 20.149 28.86 5.37 10.718 2.288 22.85.443 34.033-1.54 8.63-4.436 17.84-11.767 23.385-10.927 8.12-24.865 10.416-38.033 12.388.77-7.679 3.081-15.335 2.17-23.083-1.423-7.61-13.774-9.698-16.763-2.158-3.058 7.215-4.646 14.917-7.097 22.341-15.246-5.382-28.718-16.82-33.738-32.432-6.024-19.395-3.852-42.246 9.06-58.509z" fill="#020202"/><path d="M569.668 242.081c-11.316 3.128-3.838 21.33 6.298 15.921 10.135-5.409 5.018-19.048-6.298-15.92zM126 238c-2.935 0-6.731 2.433-7 7s1 10 6 10 10-2 10-8-3-9-9-9z" fill="#f7931b"/></g><ellipse cx="572.5" cy="250.5" fill="#e17b01" rx="3.5" ry="4.5"/><ellipse cx="126.5" cy="246" fill="#e17b01" rx="3.5" ry="4"/><path d="M101 215.241c0 12.897 6.977 18.759 19.767 18.759S151 230.483 151 218.759 146.349 200 133.558 200c-12.79 0-32.558 2.345-32.558 15.241zM553 217.297C553 230.01 571.731 240 584.522 240S603 232.32 603 220.764C603 209.208 589.704 200 576.913 200c-12.79 0-23.913 4.585-23.913 17.297z" fill="#504c49"/></g></svg>