<svg xmlns="http://www.w3.org/2000/svg" viewBox="0 0 395 236"><path fill="#E42575" d="m279.584 60.122 23.098 27.09c2.643 3.086 4.94 5.486 5.975 6.972 6.895 6.858 10.802 16.116 10.802 25.718-.69 11.315-8.044 19.088-14.939 27.432l-16.203 18.86-8.388 9.83c-.345.342-.46.8-.575 1.257s0 .914.23 1.257c.23.457.46.8.92 1.029.344.228.804.342 1.263.342h84.347c12.87 0 29.073 10.745 28.153 27.09 0 7.43-3.102 14.516-8.388 19.774a28.983 28.983 0 0 1-20.225 8.23h-132.15c-8.734 0-32.061.914-38.611-18.86-1.38-4.115-1.609-8.573-.575-12.802 1.954-6.286 4.942-12.23 8.849-17.488 6.665-9.83 13.79-19.545 20.914-29.032 9.193-12.46 18.5-24.46 27.809-37.148.345-.457.46-.914.46-1.486s-.23-1.029-.46-1.486l-33.555-39.205c-.23-.229-.46-.457-.804-.686-.345-.114-.69-.228-1.034-.228-.345 0-.69.114-1.035.228s-.574.343-.804.686c-8.963 11.887-48.379 64.58-56.767 75.324-8.389 10.63-29.073 11.316-40.565 0l-52.515-51.664c-.345-.343-.804-.571-1.264-.686-.46-.114-.92 0-1.379.115-.46.228-.804.457-1.034.914-.23.343-.46.8-.345 1.257v99.328c.115 7.086-1.953 13.944-6.09 19.774s-9.883 10.173-16.663 12.573c-4.366 1.486-8.963 1.943-13.445 1.257-4.481-.686-8.848-2.286-12.525-4.915a27.601 27.601 0 0 1-8.848-10.058c-2.069-4-3.218-8.458-3.218-12.916V29.147A30.801 30.801 0 0 1 6.78 11.43C10.917 6.4 16.433 2.743 22.753 1.03a33.787 33.787 0 0 1 16.547 0c5.401 1.486 10.343 4.229 14.364 8.23l80.785 79.21c.23.228.574.457.804.571.345.115.69.115 1.034.115s.69-.115.92-.343c.344-.115.574-.343.804-.686l57.342-77.839c2.643-3.2 5.975-5.715 9.767-7.43 3.792-1.714 7.93-2.743 12.066-2.743h149.157c4.137 0 8.16.915 11.837 2.515a31.458 31.458 0 0 1 9.767 7.087c2.643 2.971 4.712 6.515 5.86 10.4 1.15 3.887 1.495 7.888.92 11.888-1.034 6.858-4.596 13.145-9.997 17.603-5.401 4.457-12.296 6.972-19.42 6.858h-83.543c-.46 0-.804.114-1.149.342s-.69.572-.804.915c-.23.343-.23.8-.23 1.143-.345.457-.23.914 0 1.257z"/></svg>