<svg xmlns="http://www.w3.org/2000/svg" viewBox="0 0 1950 173"><path d="M123 4v165H86L38 73v96H0V4h38l48 89V4zm169.176 35.405c11.693 18.528 16.595 41.657 12.272 63.162-1.489 7.417-3.264 14.635-6.616 21.411-6.917 13.976-17.596 25.948-30.25 35.002-1.257.9-3.226 1.774-4.529 2.615-5.592 3.608-13.647 7.29-20.02 9.142-9.394 2.726-19.31 2.213-29.088 2.242-4.756.012-18.321-2.32-20.332-3.081-9.692-3.67-19.654-7.875-27.81-14.283-16.489-12.952-27.477-32.312-31.345-52.88-6.64-35.292 9.83-72.254 40.656-90.504 18.546-10.982 42.744-15.13 63.69-10.133 21.246 5.07 41.679 18.778 53.372 37.307zm-31.847 21.461c-6.489-10.281-17.827-17.888-29.617-20.702-11.623-2.773-25.05-.47-35.343 5.623-17.105 10.127-26.244 30.638-22.56 50.222 2.147 11.413 8.244 22.156 17.394 29.344 4.526 3.556 10.054 5.89 15.432 7.926 1.116.422 8.643 1.716 11.282 1.71 5.427-.016 10.929.268 16.141-1.245 3.537-1.028 8.007-3.07 11.11-5.073.723-.466 1.816-.952 2.514-1.451 7.021-5.024 12.947-11.668 16.786-19.423 1.86-3.76 2.845-7.765 3.67-11.881 2.4-11.934-.32-24.768-6.81-35.05zm217.847-21.461c11.693 18.528 16.595 41.657 12.272 63.162-1.489 7.417-3.264 14.635-6.616 21.411-6.917 13.976-17.596 25.948-30.25 35.002-1.257.9-3.226 1.774-4.529 2.615-5.592 3.608-13.647 7.29-20.02 9.142-9.394 2.726-19.31 2.213-29.088 2.242-4.756.012-18.321-2.32-20.332-3.081-9.692-3.67-19.654-7.875-27.81-14.283-16.489-12.952-27.477-32.312-31.345-52.88-6.64-35.292 9.83-72.254 40.656-90.504 18.546-10.982 42.744-15.13 63.69-10.133 21.246 5.07 41.679 18.778 53.372 37.307zm-31.847 21.461c-6.489-10.281-17.827-17.888-29.617-20.702-11.623-2.773-25.05-.47-35.343 5.623-17.105 10.127-26.244 30.638-22.56 50.222 2.147 11.413 8.244 22.156 17.394 29.344 4.526 3.556 10.054 5.89 15.432 7.926 1.116.422 8.643 1.716 11.282 1.71 5.427-.016 10.929.268 16.141-1.245 3.537-1.028 8.007-3.07 11.11-5.073.723-.466 1.816-.952 2.514-1.451 7.021-5.024 12.947-11.668 16.786-19.423 1.86-3.76 2.845-7.765 3.67-11.881 2.4-11.934-.32-24.768-6.81-35.05zM594 41h-33v129h-37V41h-32V4h102zM790 4v165h-37l-48-96v96h-38V4h38l48 89V4zm169.176 35.405c11.693 18.528 16.595 41.657 12.272 63.162-1.489 7.417-3.264 14.635-6.616 21.411-6.917 13.976-17.596 25.948-30.25 35.002-1.257.9-3.226 1.774-4.529 2.615-5.592 3.608-13.647 7.29-20.02 9.142-9.394 2.726-19.31 2.213-29.088 2.242-4.756.012-18.321-2.32-20.332-3.081-9.692-3.67-19.654-7.875-27.81-14.283-16.489-12.952-27.477-32.312-31.345-52.88-6.64-35.292 9.83-72.254 40.656-90.504 18.546-10.982 42.744-15.13 63.69-10.133 21.246 5.07 41.679 18.778 53.372 37.307zm-31.847 21.461c-6.489-10.281-17.827-17.888-29.617-20.702-11.623-2.773-25.05-.47-35.343 5.623-17.105 10.127-26.244 30.638-22.56 50.222 2.147 11.413 8.244 22.156 17.394 29.344 4.526 3.556 10.054 5.89 15.432 7.926 1.116.422 8.643 1.716 11.282 1.71 5.427-.016 10.929.268 16.141-1.245 3.537-1.028 8.007-3.07 11.11-5.073.723-.466 1.816-.952 2.514-1.451 7.021-5.024 12.947-11.668 16.786-19.423 1.86-3.76 2.845-7.765 3.67-11.881 2.4-11.934-.32-24.768-6.81-35.05zm217.847-21.461c11.693 18.528 16.595 41.657 12.272 63.162-1.489 7.417-3.265 14.635-6.616 21.411-6.917 13.976-17.596 25.948-30.25 35.002-1.257.9-3.226 1.774-4.529 2.615-5.592 3.608-13.647 7.29-20.02 9.142-9.394 2.726-19.31 2.213-29.088 2.242-4.756.012-18.321-2.32-20.332-3.081-9.692-3.67-19.654-7.875-27.81-14.283-16.489-12.952-27.477-32.312-31.345-52.88-6.64-35.292 9.83-72.254 40.656-90.504 18.546-10.982 42.744-15.13 63.69-10.133 21.246 5.07 41.679 18.778 53.372 37.307zm-31.847 21.461c-6.489-10.281-17.827-17.888-29.617-20.702-11.623-2.773-25.05-.47-35.343 5.623-17.105 10.127-26.244 30.638-22.56 50.222 2.147 11.413 8.244 22.156 17.394 29.344 4.526 3.556 10.054 5.89 15.432 7.926 1.116.422 8.643 1.716 11.282 1.71 5.427-.016 10.929.268 16.141-1.245 3.537-1.028 8.007-3.07 11.11-5.073.723-.466 1.816-.952 2.514-1.451 7.021-5.024 12.947-11.668 16.786-19.423 1.86-3.76 2.845-7.765 3.67-11.881 2.4-11.934-.32-24.768-6.81-35.05zM1258 41h-33v129h-37V41h-32V4h102zM623.352 73.438c4.13 0 7.61 1.438 10.44 4.314 2.829 2.876 4.244 6.347 4.244 10.412s-1.434 7.535-4.302 10.412c-2.868 2.876-6.329 4.314-10.382 4.314s-7.514-1.438-10.382-4.314c-2.868-2.877-4.302-6.347-4.302-10.412s1.415-7.536 4.245-10.412c2.83-2.876 6.309-4.314 10.439-4.314zm666.722 0c4.13 0 7.61 1.438 10.44 4.314 2.83 2.876 4.244 6.347 4.244 10.412s-1.434 7.535-4.302 10.412c-2.868 2.876-6.328 4.314-10.382 4.314s-7.514-1.438-10.382-4.314c-2.867-2.877-4.301-6.347-4.301-10.412s1.414-7.536 4.244-10.412c2.83-2.876 6.31-4.314 10.44-4.314zm214.647-4.782c.13 10.361-.021 20.73-.02 31.1.007 4.395-.13 65.688-.268 68.999h-36.945v-11.948c.007-1.566.007-3.215 0-4.864V131.4c0-.021.007-.049.007-.07-.007-2.297-.007-3.897-.007-6.194v-3.084c.034-.124.062-.255.062-.407 0-9.155.475-19.123.541-28.28-.161-1.68.09-11.857 0-11.906 0 0-4.186 10.483-5.768 13.035-1.368 2.208-3.886 10.15-4.855 12.575-8.109 20.305-14.651 38.86-23.503 58.837a40.786 40.786 0 0 0-1.122 2.849h-5.241c-1.24-.02-17.575.174-23.216.14-1.203-2.787-8.87-18.2-10.287-22.408-.31-.931-5.482-16.764-5.688-17.364-.798-2.263-1.7-3.801-2.552-6.043-2.32-6.084-4.875-11.5-7.151-17.606-.482-1.303-2.217-8.127-2.713-9.502-1.11-4.083-3.78-8.562-5.07-10.467a2875.38 2875.38 0 0 0-.032 12.18c.007 4.395.558 67.757.42 71.068h-37.633v-11.948c.007-1.566.007-3.214 0-4.863v-19.854c0-.02.007-.048.007-.069-.007-2.297-.007-4.587-.007-6.885v-3.083c.034-.124.062-.255.062-.407 0-14.756.123-29.519.247-44.275.159-19.757.461-39.576.262-59.327-.028-2.42-.172-10.706-.275-14.163h44.181c4.384 8.355 16.59 46.999 21.5 59.265 4.149 10.36 6.862 18.242 10.974 28.63.227.558.785 3.388 1.102 3.891.626 1.677 1.96 4.795 1.637 4.857 1.376 3.553 3.531 9.104 4.742 12.16.096.241 1.017 4.218 1.299 4.425 1.61-2.484 5.483-16.352 6.523-18.993 13.196-33.51 32.997-93.477 33.453-94.235h45.712c-.055 15.736-.358 31.492-.427 47.234-.02 5.85-.013 11.693.049 17.543zm60.977.697c5.702-.033 31.275.182 38.4.187v6.877c-.142.933-.267 1.864-.281 2.802-.103 6.201-.026 12.403-.061 18.604 0 .74.096 1.435.343 2.085l-.345 4.757c-1.466-.136-7.448.16-8.465.132-1.948-.04-2.526-.011-4.471-.019-8.827-.042-14.205-.103-23.032-.124-1.23 0-3.082-.344-4.174.096-.226 1.499-.433 3.091-.419 4.609.026 3.793-.014 6.892-.02 10.685v11.376c0 .923-.24 2.351.044 3.367l.023.002v32.998c0 .613-.493 1.108-1.104 1.108h-34.54c-.468-.047-.936-.505-1.465-.809-.049-.867-.131-1.66-.131-2.448-.014-11.05-.021-22.235-.028-33.288-.02-18.031-.261-36.037-.336-54.062-.036-9.182.035-18.357.117-27.532.04-4.587.09-9.175.122-13.77.014-2.386.036-4.766.043-7.153.007-1.33.164-25.953.164-25.953h83.672c.082 3.506-.308 7.045-.489 10.502-.15 2.834-.089 5.676.028 8.517.022 1.044.076 2.085.153 3.12.09 1.764.179 3.532.24 5.296.09 2.644.138 5.292.103 7.934-2.023 0-4.046 0-6.066-.012-11.688-.043-23.367-.104-35.056-.14-1.12 0-4.332-.746-5.384-.134-.16.18.033.773 0 .967-.717 3.484-.91 26.843-.423 29.419.456.143 2.307.011 2.838.004zm104.055 65.71c2.848.056 23.046.07 25.097.075 4.457.02 8.913.02 13.377.035v5.104c-.026.167-.054.325-.054.483.007 6.755.028 13.515.054 20.274v7.858h-82.426c-.468-.047-.935-.504-1.464-.808-.05-.867-.132-1.661-.132-2.448-.014-11.05-.02-22.096-.028-33.147-.019-18.034-.26-36.179-.336-54.203-.035-9.182.033-18.357.118-27.532.04-4.588.089-9.175.122-13.77.014-2.387.035-4.766.042-7.153.007-1.331.165-25.953.165-25.953h85.048c.082 3.506-.31 7.045-.489 10.501-.15 2.835-.089 5.676.029 8.518.018 1.044.075 2.085.15 3.12.09 1.764.179 3.531.242 5.296.09 2.644.136 5.292.101 7.933-2.02 0-4.043 0-6.066-.012-11.686-.042-24.742-.103-36.43-.139-1.12 0-4.335-.746-5.387-.134-.158.18.035.773 0 .966-.714 3.485-.91 26.156-.42 28.729.453.144 2.306.014 2.835.007 5.702-.035 18.875.144 20.459.144 7.125.028 14.258.035 21.384.042v6.878c-.143.93-.268 1.861-.282 2.799-.103 6.204-.028 12.405-.061 18.607 0 .737.096 1.435.343 2.083l-.345 4.759c-1.466-.139-7.448.16-8.465.132-1.948-.042-3.9-.014-5.848-.021-8.824-.04-16.267-.104-25.094-.125-1.231 0-3.083-.344-4.175.099-.226 1.498-.432 3.089-.418 4.606.026 3.796-.014 7.582-.021 11.376v11.517c0 .923-.24 2.351.044 3.364.475.078 1.816.078 2.484.1 1.947.046 3.9 0 5.847.04zm132.514-44.45c-.06.035 30.586 78.14 30.586 78.14h-40.316l-1.472-4.435c-.062-.504-.145-1.049-.303-1.566-1.224-3.933-2.868-7.727-3.859-11.735-.11-.441-.357-.848-.488-1.283-.936-3.056-3.357-10.5-3.873-11.106 0 0-16.965-47.527-17.446-48.54-.264-.099-.39.072-.44.366l-.001.756c.076.8.319 1.722.319 1.722l.1 65.434c.021 4.437.029 7.819.016 9.45l.001.937h-37.65v-11.948c.006-1.566.006-3.215 0-4.863v-19.854c0-.02.006-.048.006-.07-.006-2.296-.006-4.587-.006-6.884v-3.083c.034-.125.061-.256.061-.407 0-14.756.124-29.519.248-44.275.158-19.757.461-39.576.262-59.327-.028-2.421-.172-10.706-.276-14.162h54.13s19.076 1.51 26.389 6.947c8.935 6.277 14.204 10.533 18.923 25.752.02.165.048.324.09.49 3.042 12.191 2.921 27.214-4.242 37.944-3.188 4.774-5.958 6.94-9.475 9.962-2.229 1.925-3.725 2.3-6.429 3.653-.715.351-3.947 1.803-4.855 1.986zm-24.237-22.465c8.516 0 16.165-3.144 16.167-15.094 0-10.71-6.794-14.353-14.668-14.353-3.096 0-6.497-.014-9.592 0-.37 0-4.213-.012-5.224-.007-.038 3.808-.07 8.612-.086 12.42-.02 5.85-.013 10.313.049 16.163.002.154 0 .307.002.46.157.14.3.273.418.396.606.069 4.027-.118 4.7-.111 3.55.055.955.083 4.511.11.915.007 2.562.016 3.723.016zm169.604 34.102c3.096 9.241 2.972 22.391.681 31.488-2.324 9.22-7.626 17.876-14.214 24.738-11.28 11.748-24.998 15.122-40.908 14.44-11.888-.506-26.926-2.968-35.727-10.798-2.916-2.591-8.726-7.309-10.295-10.965-.186-.424-.588-.754-.91-1.108-1.46-1.585-2.57-3.362-3.387-5.393-.745-1.854-3.682-5.75-3.339-6.044.172-.15.343-.287.524-.43.035-.029.085-.064.12-.093.108-.08.223-.158.331-.245.787-.568 26.6-14.81 29.46-16.507.58-.353 1.303-.452 2.07-.705.507.625 2.356 4.117 3.201 5.698 1.074 2.012 5.625 7.516 7.345 8.97 3.839 3.254 10.556 4.472 16.253 3.621 7.323-1.096 11.92-6.437 12.386-14.823.489-8.852-6.139-14.141-11.914-15.857-7.678-2.28-17.616-8.15-24.859-10.996-12.269-4.82-23.23-14.592-27.359-28.644-1.172-3.994-1.882-10.27-2.18-14.512-.977-13.78 2.817-24.461 11.294-35.267 5.626-7.18 13.861-13.616 22.627-16.307 10.654-3.268 18.755-2.863 29.602-1.498 8.904 1.119 18.58 4.677 25.242 10.607 3.947 3.513 7.107 7.688 9.924 12.134.294.467.402 1.07.58 1.581-1.038 1.673-2.307 2.896-3.918 3.742-.945.5-1.896.985-2.845 1.47-.346.017-16.533 10.91-19.233 13.108-.911.747-1.978 1.38-3.59 1.02-.918-.639-1.644-1.593-2.417-2.312-1.224-1.145-2.352-2.448-3.722-3.42-1.362-.967-2.885-1.683-4.424-2.317-7.165-2.954-16.422-1.338-20.451 5.818-1.476 2.62-2.051 5.737-1.63 8.717.413 2.931 2.118 4.939 3.932 7.208.651.818 1.741 1.263 2.472 2.026 1.038 1.084 6.292 3.139 7.64 3.683 6.625 2.662 11.423 4.889 14.653 6.274 7.692 3.292 15.36 5.3 20.96 10.3 6.874 6.135 11.763 11.3 15.322 19.74.259.605.491 1.224.703 1.858z"/></svg>