<svg xmlns="http://www.w3.org/2000/svg" viewBox="0 0 1920 463"><g fill="none" fill-rule="evenodd"><path d="M712 .378h546v559H712z"/><g transform="translate(712 .378)"><path d="M96.096 288.192c0-54.388 121.177-91.363 190.584-83.282 69.407 8.08 86.784 74.784 86.784 107.077S245.841 344.28 170.968 344.28c-74.872 0-74.872-1.7-74.872-56.088z" fill="#e17b01"/><g fill-rule="nonzero"><path d="M126.462 234.409c11.893-11.813 83.249-32.063 152.906-32.063 69.657 0 80.853 67.145 80.241 69.845-3.007 9.5-3.772 20.351-10.228 28.333-13.625 12.42-33.792 11.357-50.9 9.281-18.723-1.569-35.984-10.192-54.757-11.255-24.108-1.434-48.675-.236-72.07 6.058-14.9 3.966-29.086 13.044-45.056 10.985-10.67-1.265-16.53-11.204-22.494-18.9 6.32-17.313 10.466-50.472 22.358-62.284zM415.932 175.518c7.986-4.354 13.31 9.703 5.124 12.232-8.247 4.156-14.332-9.829-5.124-12.232z" fill="#f7931b"/><path d="M401.663 126.566c19.182-2.447 40.983 1.84 54.476 16.677 6.209 5.953 13.441 11.246 17.257 19.229 9.226 17.336 6.191 38.63-2.48 55.567-6.418 12.061-19.703 18.118-32.242 21.693-15.418 3.783-32.987 4.442-46.914-4.322-9.643-6.16-19.425-13.657-23.813-24.625-4.561-10.985-9.573-22.577-8.03-34.777 1.717-13.936 6.938-28.096 17.31-37.919 6.607-6.42 15.47-10.013 24.436-11.523zM99.512 124.762c11.255-1.219 23.22 1.27 32.293 8.284 12.9 10.043 20.241 27.152 17.644 43.495-1.524 10.13-.468 21.339-6.684 30.111-9.61 13.767-22.856 26.543-40.015 29.328-15.047 2.332-32.656 4.664-45.608-5.292-9.644-6.857-14.908-18.344-16.536-29.85-3.082-22.278 6.719-44.921 22.042-60.69 9.576-10.113 23.376-14.307 36.864-15.386z" fill="#fff"/><path d="M251.89.269c22.726-.068 45.606-1.323 68.164 2.238 23.712 3.646 47.696 7.445 70.032 16.619 16.46 5.85 30.626 16.364 44.3 26.945 21.47 17.415 41.65 36.696 58.193 58.893 12.366 18.263 24.647 36.9 32.375 57.69 10.905 24.893 14.88 52.228 15.22 79.225.441 17.703-3.924 35.017-6.268 52.466-1.834 14.04-6.624 27.471-12.383 40.325-6.471 14.278-17.852 25.385-26.022 38.595-10.328 16.55-26.43 28.082-41.768 39.613-12.281 9.326-25.802 16.788-39.017 24.656C361 461.622 215 469.622 164.004 452.558c-10.565-4.358-21.351-8.19-31.509-13.464-22.846-11.616-45.488-23.91-66.21-39.07-12.367-8.954-22.694-20.315-33.106-31.388-14.082-15.788-25.955-34.44-29.896-55.502C-.793 295.329.056 276.98.107 258.854c.051-11.939 1.155-23.843 3.024-35.645 2.598-16.28 3.533-32.847 7.796-48.838 4.875-19.925 13.419-38.73 23.084-56.757C45.425 99.08 59.609 82.377 74.726 66.742c13.368-15.075 31.033-25.199 48.597-34.61 14.03-7.156 29.283-11.328 43.874-17.161C194.24 4.678 223.336 2.643 251.89.269zm-188.443 140c-15.032 15.364-24.646 37.426-21.623 59.131 1.597 11.21 6.76 22.401 16.222 29.082 12.705 9.7 29.98 7.428 44.74 5.155 16.834-2.713 29.828-15.16 39.255-28.573 6.098-8.546 5.062-19.467 6.557-29.336 2.548-15.923-4.654-32.593-17.309-42.377-8.9-6.834-20.638-9.259-31.679-8.072-13.232 1.052-26.77 5.138-36.163 14.99zm314.596-1.373c-10.157 9.598-15.27 23.435-16.952 37.052-1.511 11.921 3.398 23.249 7.865 33.983 4.297 10.717 13.877 18.043 23.322 24.062 13.64 8.564 30.846 7.92 45.946 4.223 12.281-3.493 25.292-9.412 31.577-21.197 8.493-16.55 11.466-37.357 2.43-54.298-3.738-7.8-10.82-12.972-16.902-18.789-13.215-14.498-34.566-18.687-53.352-16.296-8.782 1.476-17.462 4.986-23.934 11.26zm-150.699 71.9c-17.699 3.493-36.129 5.392-52.418 13.684-14.574 7.479-28.265 16.585-41.19 26.624-15.084 11.497-23.594 29.2-29.913 46.599-2.31 7.885-6.692 16.584-2.26 24.605 2.6 7.427 11.042 9.547 17.887 11.124 16.34 3.103 33.089 1.916 49.616 2.798 26.464-.594 52.928-.56 79.409-.543 27.296-.203 55.017.916 81.804-5.307 10.905-3.46 23.237-7.75 29.555-17.941 5.028-12.362-1.24-44.751-2.02-47.312-5.13-13.464-15.152-24.368-26.16-33.389-8.696-7.461-17.834-14.872-28.858-18.551-24.239-8.326-50.601-7.156-75.452-2.391z" fill="#020202"/><path d="M73.978 149.056c8.323-6.95 19.682-9 30.274-8.509 10.182.373 18.164 9.102 20.569 18.458 1.893 7.593 2.32 15.61 1.347 23.373-2.456 13-11.905 23.475-22.803 30.475-2.166-3.61-4.008-7.492-6.942-10.577-3.888-4.152-11.956-2.39-13.49 3.187-.854 3.763.016 7.644.238 11.44-4.554-.542-9.466-.61-13.423-3.254-9.448-7.101-14.275-19.407-12.655-31.017 1.689-12.525 6.84-25.373 16.885-33.576zM389.672 155.15c6.51-8.34 16.419-15.044 27.416-14.656 10.25-.287 20.464 3.833 27.603 11.145 6 6.13 10.895 13.34 14.669 21.006 3.91 7.801 1.665 16.632.323 24.771-1.122 6.282-3.23 12.986-8.567 17.021-7.955 5.91-18.102 7.582-27.688 9.017.56-5.589 2.243-11.161 1.58-16.801-1.036-5.539-10.028-7.058-12.203-1.57-2.227 5.251-3.383 10.857-5.168 16.26-11.099-3.917-20.906-12.242-24.56-23.606-4.386-14.116-2.805-30.75 6.595-42.586z" fill="#020202"/><path d="M414.718 176.202c-8.238 2.277-2.794 15.526 4.585 11.589 7.379-3.937 3.654-13.865-4.585-11.589zM91.728 173.232c-2.136 0-4.9 1.77-5.096 5.095-.196 3.324.728 7.278 4.368 7.278s7.28-1.455 7.28-5.822c0-4.368-2.184-6.551-6.552-6.551z" fill="#f7931b"/></g><ellipse cx="416.78" cy="182.33" fill="#e17b01" rx="2.548" ry="3.275"/><ellipse cx="92.092" cy="179.055" fill="#e17b01" rx="2.548" ry="2.911"/><path d="M73.528 156.667c0 9.387 5.08 13.653 14.39 13.653s22.01-2.56 22.01-11.093c0-8.534-3.386-13.654-12.698-13.654-9.311 0-23.702 1.707-23.702 11.094zM402.584 158.163c0 9.253 13.636 16.524 22.948 16.524s13.452-5.59 13.452-14c0-8.412-9.68-15.114-18.991-15.114s-17.409 3.337-17.409 12.59z" fill="#504c49"/></g><path d="M103.686 95.101c.014.22-.046.432-.093.638-.32 1.415-.228 2.566-.195 3.902.251 10.1-.503 20.18-.637 30.296-.097 10.132.005 20.264-.014 30.396.072 9.043-.038 18.09-.038 27.138.006 4.233.538 63.284.405 66.475h-32.82c-.857-1.476-1.828-2.878-2.858-4.24-.259-1.689-1.86-2.819-1.974-4.573-9.652-20.518-22.134-40.065-32.37-60.309-3.31-6.544-7.707-15.527-10.87-22.15-.093-.193-1.233-2.717-1.446-2.81-.159.206.203 2.433.09 2.653 0 1.262.343 41.105.47 48.3.254 14.375.463 28.76-.135 43.129H-15.16v-11.512c.112-25.51.084-51.02.299-76.53.153-19.035.445-38.13.252-57.157-.026-2.333-.166-10.315-.266-13.646h36.712a38.168 38.168 0 0 0 1.967 2.972c3.635 8.006 8.608 15.613 12.843 23.32 4.928 8.968 8.868 18.39 13.469 27.529 2.937 5.849 13.531 27.342 15.093 30.36.233.458.698.804 1.562 1.768.238-22.987.795-49.307.533-72.304-.027-2.333-.166-10.315-.266-13.645zm115.163-1.665c20.507 4.872 40.228 18.042 51.515 35.843 11.286 17.802 16.017 40.023 11.845 60.684-1.437 7.126-3.151 14.06-6.386 20.571-6.676 13.427-16.984 24.93-29.196 33.628-1.215.865-3.115 1.705-4.372 2.513-5.399 3.466-13.173 7.003-19.325 8.782-9.066 2.62-18.637 2.127-28.075 2.155-4.59.01-17.684-2.23-19.625-2.96-9.354-3.526-18.97-7.566-26.842-13.723-15.915-12.444-26.52-31.044-30.255-50.805-6.408-33.907 9.489-69.418 39.242-86.952 17.9-10.55 41.257-14.537 61.474-9.736zm19.458 106.077c5.455-8.92 6.86-19.765 5.64-30.15-.834-7.123-3.168-14.099-7.043-20.135-9.116-14.208-25.283-22.36-43.044-20.148-27.95 3.48-44.646 32.86-36.987 59.172 2.6 8.928 7.384 16.986 14.648 22.79 4.293 3.43 14.73 9.675 28.502 9.675 16.776 0 23.07-5.777 26.655-8.063 5.219-3.328 8.397-7.852 11.629-13.14zM393.185 93.436c20.507 4.872 40.228 18.042 51.515 35.843 11.286 17.802 16.017 40.023 11.845 60.684-1.437 7.126-3.151 14.06-6.386 20.571-6.676 13.427-16.984 24.93-29.196 33.628-1.215.865-3.115 1.705-4.372 2.513-5.399 3.466-13.173 7.003-19.325 8.782-9.066 2.62-18.637 2.127-28.075 2.155-4.59.01-17.684-2.23-19.625-2.96-9.354-3.526-18.97-7.566-26.842-13.723-15.915-12.444-26.52-31.044-30.255-50.805-6.408-33.907 9.489-69.418 39.242-86.952 17.9-10.55 41.257-14.537 61.474-9.736zm19.458 106.077c5.455-8.92 6.86-19.765 5.64-30.15-.834-7.123-3.168-14.099-7.043-20.135-9.116-14.208-25.283-22.36-43.044-20.148-27.95 3.48-44.646 32.86-36.987 59.172 2.6 8.928 7.384 16.986 14.648 22.79 4.293 3.43 14.73 9.675 28.502 9.675 16.776 0 23.07-5.777 26.655-8.063 5.219-3.328 8.397-7.852 11.629-13.14zM556.119 96.4c.083 1.697.137 3.822.164 5.16-.233 1.456-.472 2.831-.499 4.214-.093 5.164-.106 8.34-.113 13.505-.12 3.044-.25 5.19-.197 8.24-.678-.006-1.362-.006-2.047-.013-1.102-.013-1.92-.096-3.31-.096-1.482 0-3.718.038-5.147.031-2.652-.02-5.894.126-8.546.106-3.893-.032-8.166-.095-12.306-.106-.04 4.157-.105 8.827-.124 13.166-.02 5.636-.013 11.265.047 16.901.126 9.983-.02 19.972-.02 29.961.006 4.234.538 63.285.405 66.475h-35.71v-11.51c.006-1.51.006-3.098 0-4.686v-19.128c0-.02.006-.047.006-.067-.006-2.213-.006-4.42-.006-6.633v-2.97c.033-.12.06-.246.06-.392 0-14.217-.23-28.44-.11-42.656.11-13.69.289-27.048.325-39.552-1.26-.042-2.711.146-3.648.146-3.65.007-7.305-.067-10.953-.08-5.111-.023-9.563-.048-14.512-.068a2.056 2.056 0 0 1-2.052-2.039c-.044-6.419-.217-25.617-.373-26.11V95.1h30.765c.145.007.29.006.434.01v-.01h66.099c.73 0 1.333.57 1.368 1.299zm31.004 65.715c3.99 0 7.352 1.385 10.086 4.156s4.101 6.115 4.101 10.031-1.385 7.26-4.156 10.031-6.115 4.157-10.031 4.157-7.26-1.386-10.031-4.157-4.157-6.114-4.157-10.03 1.367-7.26 4.101-10.032c2.734-2.77 6.096-4.156 10.087-4.156zM747.874 95.1c.014.22-.046.432-.093.638-.32 1.415-.228 2.566-.195 3.902.251 10.1-.503 20.18-.637 30.296-.098 10.132.005 20.264-.014 30.396.072 9.043-.038 18.09-.038 27.138.006 4.233.538 63.284.405 66.475h-32.82c-.857-1.476-1.828-2.878-2.858-4.24-.26-1.689-1.86-2.819-1.974-4.573-9.652-20.518-22.134-40.065-32.37-60.309-3.31-6.544-7.708-15.527-10.87-22.15-.093-.193-1.233-2.717-1.446-2.81-.159.206.203 2.433.089 2.653.001 1.262.344 41.105.47 48.3.255 14.375.464 28.76-.134 43.129h-36.362v-11.512c.113-25.51.085-51.02.3-76.53.152-19.035.445-38.13.252-57.157-.026-2.333-.166-10.315-.266-13.646h36.712a38.168 38.168 0 0 0 1.967 2.972c3.635 8.006 8.607 15.613 12.842 23.32 4.93 8.968 8.869 18.39 13.47 27.529 2.937 5.849 13.531 27.342 15.093 30.36.233.458.698.804 1.562 1.768.238-22.987.795-49.307.533-72.304-.027-2.333-.166-10.315-.266-13.645zm523.257 1.298c.083 1.697.137 3.822.163 5.16-.232 1.456-.471 2.831-.498 4.214-.093 5.164-.106 8.34-.113 13.505-.12 3.044-.25 5.19-.197 8.24-.678-.006-1.362-.006-2.047-.013-1.102-.013-1.92-.096-3.31-.096-1.482 0-3.718.038-5.147.031-2.652-.02-5.894.126-8.546.106-3.893-.032-8.167-.095-12.306-.106-.04 4.157-.105 8.827-.124 13.166-.02 5.636-.013 11.265.046 16.901.127 9.983-.02 19.972-.02 29.961.007 4.234.539 63.285.406 66.475h-35.71v-11.51c.006-1.51.006-3.098 0-4.686v-19.128c0-.02.006-.047.006-.067-.007-2.213-.007-4.42-.007-6.633v-2.97c.034-.12.06-.246.06-.392 0-14.217-.23-28.44-.11-42.656.11-13.69.29-27.048.326-39.552-1.26-.042-2.711.146-3.649.146-3.648.007-7.304-.067-10.952-.08-5.111-.023-9.563-.048-14.512-.068a2.056 2.056 0 0 1-2.052-2.039c-.045-6.419-.217-25.617-.373-26.11V95.1h30.765c.144.007.29.006.434.01v-.01h66.098c.73 0 1.334.57 1.369 1.299zm31.003 65.715c3.99 0 7.353 1.385 10.087 4.156s4.1 6.115 4.1 10.031-1.385 7.26-4.156 10.031-6.114 4.157-10.03 4.157c-3.917 0-7.26-1.386-10.032-4.157s-4.156-6.114-4.156-10.03 1.367-7.26 4.101-10.032 6.096-4.156 10.086-4.156zm207.392-4.607c.126 9.982-.02 19.971-.019 29.963.007 4.233-.126 63.285-.259 66.475h-35.697v-11.511c.007-1.51.007-3.098 0-4.686v-19.792c0-.02.007-.047.007-.067-.007-2.213-.007-3.755-.007-5.968v-2.97c.034-.12.06-.247.06-.393 0-8.82.46-18.424.523-27.246-.155-1.618.087-11.423 0-11.47 0 0-4.045 10.099-5.573 12.558-1.322 2.127-3.755 9.779-4.69 12.115-7.836 19.563-14.157 37.44-22.71 56.685a39.224 39.224 0 0 0-1.083 2.745h-5.064c-1.197-.02-16.981.168-22.431.135-1.163-2.685-8.571-17.534-9.94-21.588-.3-.898-5.297-16.151-5.496-16.73-.771-2.18-1.642-3.662-2.466-5.822-2.24-5.862-4.71-11.08-6.91-16.961-.464-1.256-2.141-7.83-2.62-9.155-1.073-3.934-3.652-8.249-4.898-10.085a2762.04 2762.04 0 0 0-.031 11.736c.006 4.233.538 65.278.405 68.468h-36.361v-11.51c.007-1.51.007-3.098 0-4.686v-19.128c0-.02.007-.047.007-.066-.007-2.214-.007-4.42-.007-6.633v-2.971c.033-.12.06-.246.06-.392 0-14.216.12-28.44.24-42.655.152-19.035.444-38.13.252-57.158-.027-2.332-.167-10.314-.266-13.645h42.688c4.236 8.05 16.03 45.28 20.774 57.097 4.008 9.982 6.63 17.576 10.603 27.583.22.538.758 3.264 1.064 3.75.605 1.615 1.894 4.619 1.582 4.678 1.329 3.423 3.412 8.771 4.581 11.716.094.232.983 4.063 1.255 4.262 1.555-2.392 5.299-15.753 6.303-18.297 12.75-32.285 31.882-90.06 32.322-90.789h44.167c-.053 15.16-.345 30.34-.412 45.507-.02 5.635-.013 11.265.047 16.9zm58.916.672c5.51-.032 30.218.175 37.103.18v6.625c-.138.9-.259 1.796-.272 2.7-.1 5.974-.025 11.949-.06 17.923 0 .713.094 1.383.332 2.01l-.334 4.582c-1.416-.131-7.195.155-8.178.127-1.882-.038-2.44-.011-4.32-.018-8.529-.04-13.725-.1-22.253-.12-1.19 0-2.978-.332-4.034.093-.218 1.444-.417 2.978-.404 4.44.025 3.655-.013 6.64-.02 10.295v10.96c0 .889-.232 2.265.043 3.243l.023.002v31.792c0 .59-.477 1.066-1.067 1.066h-33.374c-.452-.045-.903-.485-1.414-.778-.048-.836-.127-1.6-.127-2.359-.014-10.646-.02-21.422-.027-32.07-.019-17.373-.252-34.72-.325-52.085-.034-8.847.034-17.686.113-26.525.04-4.42.087-8.84.119-13.266.013-2.3.034-4.592.04-6.892.007-1.283.16-25.004.16-25.004h80.843c.08 3.378-.297 6.787-.472 10.117-.145 2.731-.086 5.469.027 8.206.02 1.006.073 2.01.148 3.006.086 1.7.172 3.403.231 5.103.086 2.547.134 5.098.1 7.643-1.954 0-3.909 0-5.861-.011-11.293-.041-22.577-.1-33.87-.134-1.083 0-4.187-.72-5.204-.13-.154.173.032.745 0 .931-.692 3.357-.878 25.862-.408 28.343.44.139 2.229.012 2.742.005zm100.539 63.306c2.75.054 22.266.068 24.248.072 4.306.02 8.612.02 12.925.034v4.917c-.025.161-.052.313-.052.465.007 6.508.027 13.021.052 19.534v7.57h-79.64c-.452-.045-.904-.486-1.415-.778-.048-.836-.127-1.6-.127-2.359-.014-10.646-.02-21.288-.027-31.934-.018-17.375-.252-34.856-.325-52.222-.034-8.846.032-17.685.114-26.525.038-4.42.086-8.839.118-13.266.013-2.299.034-4.592.04-6.891.007-1.283.16-25.004.16-25.004h82.173c.08 3.377-.3 6.787-.472 10.117-.145 2.73-.086 5.469.028 8.206.018 1.006.072 2.01.145 3.006.086 1.7.172 3.402.234 5.103.086 2.547.131 5.098.097 7.643-1.952 0-3.906 0-5.86-.012-11.292-.04-23.906-.1-35.2-.134-1.082 0-4.188-.72-5.205-.129-.152.173.034.745 0 .93-.69 3.358-.878 25.2-.406 27.679.438.138 2.23.013 2.74.007 5.51-.034 18.237.138 19.767.138 6.885.027 13.777.034 20.662.041v6.626c-.139.897-.26 1.793-.273 2.697-.1 5.977-.027 11.951-.059 17.926 0 .71.093 1.382.332 2.007l-.334 4.585c-1.417-.134-7.196.154-8.179.127-1.882-.04-3.768-.013-5.65-.02-8.526-.039-15.717-.1-24.246-.12-1.19 0-2.978-.332-4.034.095-.217 1.444-.417 2.976-.404 4.438.025 3.657-.013 7.305-.02 10.96v11.095c0 .89-.232 2.265.043 3.242.459.075 1.755.075 2.4.095 1.881.045 3.768 0 5.65.039zm128.035-42.824c-.06.034 29.551 75.282 29.551 75.282h-38.953l-1.422-4.273c-.06-.485-.14-1.01-.293-1.509-1.183-3.788-2.771-7.444-3.728-11.305-.107-.425-.346-.818-.472-1.236-.904-2.945-3.243-10.116-3.742-10.7 0 0-16.391-45.789-16.857-46.766-.255-.094-.377.07-.424.354l-.002.728c.074.77.309 1.66.309 1.66l.096 63.04c.02 4.274.028 7.533.015 9.103l.002.904h-36.378v-11.51c.007-1.51.007-3.098 0-4.686v-19.128c0-.02.007-.047.007-.067-.007-2.213-.007-4.42-.007-6.633v-2.97c.033-.12.06-.246.06-.392 0-14.217.12-28.44.24-42.656.152-19.034.444-38.129.252-57.157-.027-2.333-.167-10.315-.266-13.644h52.3s18.431 1.455 25.497 6.692c8.633 6.048 13.724 10.15 18.283 24.81.02.16.047.313.087.472 2.94 11.746 2.823 26.22-4.098 36.557-3.08 4.6-5.757 6.687-9.155 9.598-2.153 1.855-3.6 2.216-6.211 3.519-.692.339-3.815 1.738-4.691 1.913zm-23.418-21.643c8.227 0 15.618-3.03 15.62-14.542 0-10.318-6.565-13.828-14.173-13.828-2.99 0-6.276-.014-9.267 0-.358 0-4.07-.012-5.048-.008-.036 3.67-.066 8.298-.082 11.966-.02 5.636-.013 9.936.046 15.572l.003.444a6.9 6.9 0 0 1 .404.38c.585.067 3.89-.113 4.541-.106 3.43.053.922.08 4.358.106.884.007 2.475.016 3.598.016zm163.87 32.855c2.993 8.902 2.872 21.571.66 30.336-2.246 8.882-7.37 17.222-13.734 23.832-10.899 11.319-24.153 14.57-39.526 13.913-11.486-.488-26.016-2.86-34.52-10.403-2.817-2.497-8.43-7.042-9.947-10.565-.179-.408-.567-.726-.878-1.067a16.793 16.793 0 0 1-3.274-5.196c-.72-1.786-3.557-5.538-3.225-5.822.166-.145.331-.277.506-.416.034-.027.082-.06.116-.088.104-.077.215-.152.32-.236.76-.547 25.7-14.27 28.463-15.904.561-.34 1.26-.436 2-.678.49.601 2.277 3.965 3.094 5.488 1.038 1.939 5.435 7.242 7.096 8.642 3.71 3.135 10.2 4.309 15.704 3.49 7.076-1.056 11.518-6.202 11.968-14.281.472-8.529-5.932-13.625-11.512-15.277-7.418-2.198-17.02-7.852-24.018-10.595-11.854-4.644-22.446-14.058-26.435-27.596-1.132-3.848-1.818-9.895-2.106-13.98-.944-13.278 2.722-23.568 10.912-33.978 5.436-6.917 13.393-13.119 21.862-15.71 10.295-3.15 18.122-2.759 28.602-1.445 8.603 1.079 17.951 4.506 24.389 10.22 3.814 3.385 6.867 7.407 9.588 11.69.284.45.389 1.031.561 1.524-1.003 1.611-2.229 2.79-3.786 3.604-.913.482-1.832.95-2.75 1.417-.333.016-15.973 10.51-18.581 12.628-.881.72-1.912 1.33-3.469.983-.888-.615-1.589-1.535-2.336-2.227-1.182-1.103-2.272-2.359-3.595-3.296-1.317-.93-2.788-1.62-4.275-2.232-6.923-2.846-15.867-1.289-19.76 5.605a13.405 13.405 0 0 0-1.576 8.4c.4 2.823 2.048 4.757 3.8 6.943.63.788 1.682 1.217 2.388 1.952 1.004 1.044 6.08 3.024 7.382 3.548 6.402 2.565 11.037 4.71 14.158 6.045 7.432 3.171 14.842 5.105 20.251 9.922 6.642 5.911 11.366 10.887 14.805 19.018.25.584.474 1.18.679 1.792z" fill="#fff" fill-rule="nonzero"/></g></svg>