<svg xmlns="http://www.w3.org/2000/svg" viewBox="0 0 247 62"><path d="M190.507 60.395c9.32-1.31 63.975-17.095 54.96-42.312S168.479-.041 175.888 7.601c7.41 7.642 21.644 9.549 16.294 13.484-5.35 3.936-23.435 13.569-17.55 16.505 5.884 2.936 26.58-.407 22.721 3.898-3.858 4.305-16.165 20.217-6.846 18.907zM67.537.598c9.32 1.31 63.975 17.095 54.96 42.312S45.509 61.034 52.918 53.392c7.41-7.642 21.644-9.548 16.294-13.484-5.35-3.936-23.435-13.569-17.55-16.505 5.883-2.936 26.58.407 22.721-3.898C70.524 15.2 58.218-.712 67.537.598z"/></svg>